HIERARCHY
ROOT Hips
{
    OFFSET   0.000000   0.000000   0.000000
    CHANNELS 6 Xposition Yposition Zposition Zrotation Xrotation Yrotation
    JOINT Chest
    {
        OFFSET   0.000000   8.007240   0.000000
        CHANNELS 3 Zrotation Xrotation Yrotation
        JOINT Chest2
        {
            OFFSET   0.000000  22.077100   0.000000
            CHANNELS 3 Zrotation Xrotation Yrotation
            JOINT Neck
            {
                OFFSET   0.000000  23.254800   0.000000
                CHANNELS 3 Zrotation Xrotation Yrotation
                JOINT Head
                {
                    OFFSET   0.000000  14.370000   1.956600
                    CHANNELS 3 Zrotation Xrotation Yrotation
                    End Site
                    {
                        OFFSET   0.000000  19.566000   0.000000
                    }
                }
            }
            JOINT LeftCollar
            {
                OFFSET   3.911900  19.017000  -0.467064
                CHANNELS 3 Zrotation Xrotation Yrotation
                JOINT LeftShoulder
                {
                    OFFSET  10.383700   0.000000   0.000000
                    CHANNELS 3 Zrotation Xrotation Yrotation
                    JOINT LeftElbow
                    {
                        OFFSET  26.662100   0.001476   0.000517
                        CHANNELS 3 Zrotation Xrotation Yrotation
                        JOINT LeftWrist
                        {
                            OFFSET  28.869000  -0.000025  -0.000106
                            CHANNELS 3 Zrotation Xrotation Yrotation
                            JOINT LeftFinger0
                            {
                                OFFSET   2.044660  -2.323460   3.252850
                                CHANNELS 3 Zrotation Xrotation Yrotation
                                JOINT LeftFinger01
                                {
                                    OFFSET   3.088130   0.000000   0.000000
                                    CHANNELS 3 Zrotation Xrotation Yrotation
                                    JOINT LeftFinger02
                                    {
                                        OFFSET   2.639460   0.000000   0.000000
                                        CHANNELS 3 Zrotation Xrotation Yrotation
                                        End Site
                                        {
                                            OFFSET   2.582190   0.000000   0.000000
                                        }
                                    }
                                }
                            }
                            JOINT LeftFinger1
                            {
                                OFFSET   8.364480   0.000000   3.252850
                                CHANNELS 3 Zrotation Xrotation Yrotation
                                JOINT LeftFinger11
                                {
                                    OFFSET   4.646930   0.000000   0.000000
                                    CHANNELS 3 Zrotation Xrotation Yrotation
                                    JOINT LeftFinger12
                                    {
                                        OFFSET   2.323460   0.000000   0.000000
                                        CHANNELS 3 Zrotation Xrotation Yrotation
                                        End Site
                                        {
                                            OFFSET   2.273050   0.000000   0.000000
                                        }
                                    }
                                }
                            }
                            JOINT LeftFinger2
                            {
                                OFFSET   8.364490   0.000015   1.078090
                                CHANNELS 3 Zrotation Xrotation Yrotation
                                JOINT LeftFinger21
                                {
                                    OFFSET   5.111620   0.000000   0.000000
                                    CHANNELS 3 Zrotation Xrotation Yrotation
                                    JOINT LeftFinger22
                                    {
                                        OFFSET   2.788160   0.000016   0.000000
                                        CHANNELS 3 Zrotation Xrotation Yrotation
                                        End Site
                                        {
                                            OFFSET   2.727660   0.000000   0.000000
                                        }
                                    }
                                }
                            }
                            JOINT LeftFinger3
                            {
                                OFFSET   7.899780   0.000017  -1.078090
                                CHANNELS 3 Zrotation Xrotation Yrotation
                                JOINT LeftFinger31
                                {
                                    OFFSET   4.646930   0.000000   0.000000
                                    CHANNELS 3 Zrotation Xrotation Yrotation
                                    JOINT LeftFinger32
                                    {
                                        OFFSET   2.323470   0.000000   0.000000
                                        CHANNELS 3 Zrotation Xrotation Yrotation
                                        End Site
                                        {
                                            OFFSET   2.273050   0.000000   0.000000
                                        }
                                    }
                                }
                            }
                            JOINT LeftFinger4
                            {
                                OFFSET   7.435090   0.000000  -3.252850
                                CHANNELS 3 Zrotation Xrotation Yrotation
                                JOINT LeftFinger41
                                {
                                    OFFSET   3.717550   0.000000   0.000000
                                    CHANNELS 3 Zrotation Xrotation Yrotation
                                    JOINT LeftFinger42
                                    {
                                        OFFSET   1.858770   0.000000   0.000000
                                        CHANNELS 3 Zrotation Xrotation Yrotation
                                        End Site
                                        {
                                            OFFSET   1.818440   0.000000   0.000000
                                        }
                                    }
                                }
                            }
                        }
                    }
                }
            }
            JOINT RightCollar
            {
                OFFSET  -3.911900  19.017000  -0.467063
                CHANNELS 3 Zrotation Xrotation Yrotation
                JOINT RightShoulder
                {
                    OFFSET -10.383700   0.000019   0.000000
                    CHANNELS 3 Zrotation Xrotation Yrotation
                    JOINT RightElbow
                    {
                        OFFSET -26.662100   0.001175   0.000102
                        CHANNELS 3 Zrotation Xrotation Yrotation
                        JOINT RightWrist
                        {
                            OFFSET -28.869000   0.000016  -0.000079
                            CHANNELS 3 Zrotation Xrotation Yrotation
                            JOINT RightFinger0
                            {
                                OFFSET  -2.044660  -2.323490   3.252850
                                CHANNELS 3 Zrotation Xrotation Yrotation
                                JOINT RightFinger01
                                {
                                    OFFSET  -3.088140   0.000000   0.000000
                                    CHANNELS 3 Zrotation Xrotation Yrotation
                                    JOINT RightFinger02
                                    {
                                        OFFSET  -2.639460   0.000000   0.000000
                                        CHANNELS 3 Zrotation Xrotation Yrotation
                                        End Site
                                        {
                                            OFFSET  -2.582190   0.000000   0.000000
                                        }
                                    }
                                }
                            }
                            JOINT RightFinger1
                            {
                                OFFSET  -8.364480   0.000000   3.252850
                                CHANNELS 3 Zrotation Xrotation Yrotation
                                JOINT RightFinger11
                                {
                                    OFFSET  -4.646930   0.000000   0.000000
                                    CHANNELS 3 Zrotation Xrotation Yrotation
                                    JOINT RightFinger12
                                    {
                                        OFFSET  -2.323470   0.000000   0.000000
                                        CHANNELS 3 Zrotation Xrotation Yrotation
                                        End Site
                                        {
                                            OFFSET  -2.273050   0.000000   0.000000
                                        }
                                    }
                                }
                            }
                            JOINT RightFinger2
                            {
                                OFFSET  -8.364480   0.000000   1.078090
                                CHANNELS 3 Zrotation Xrotation Yrotation
                                JOINT RightFinger21
                                {
                                    OFFSET  -5.111620   0.000000   0.000000
                                    CHANNELS 3 Zrotation Xrotation Yrotation
                                    JOINT RightFinger22
                                    {
                                        OFFSET  -2.788160   0.000000   0.000000
                                        CHANNELS 3 Zrotation Xrotation Yrotation
                                        End Site
                                        {
                                            OFFSET  -2.727660   0.000000   0.000000
                                        }
                                    }
                                }
                            }
                            JOINT RightFinger3
                            {
                                OFFSET  -7.899780   0.000000  -1.078090
                                CHANNELS 3 Zrotation Xrotation Yrotation
                                JOINT RightFinger31
                                {
                                    OFFSET  -4.646930   0.000000   0.000000
                                    CHANNELS 3 Zrotation Xrotation Yrotation
                                    JOINT RightFinger32
                                    {
                                        OFFSET  -2.323470   0.000000   0.000000
                                        CHANNELS 3 Zrotation Xrotation Yrotation
                                        End Site
                                        {
                                            OFFSET  -2.273050   0.000000   0.000000
                                        }
                                    }
                                }
                            }
                            JOINT RightFinger4
                            {
                                OFFSET  -7.435090   0.000000  -3.252850
                                CHANNELS 3 Zrotation Xrotation Yrotation
                                JOINT RightFinger41
                                {
                                    OFFSET  -3.717550   0.000000   0.000000
                                    CHANNELS 3 Zrotation Xrotation Yrotation
                                    JOINT RightFinger42
                                    {
                                        OFFSET  -1.858770   0.000000   0.000000
                                        CHANNELS 3 Zrotation Xrotation Yrotation
                                        End Site
                                        {
                                            OFFSET  -1.818440   0.000000   0.000000
                                        }
                                    }
                                }
                            }
                        }
                    }
                }
            }
        }
    }
    JOINT LeftHip
    {
        OFFSET   9.783040   0.000000   0.000000
        CHANNELS 3 Zrotation Xrotation Yrotation
        JOINT LeftKnee
        {
            OFFSET   0.000032 -41.789100  -0.002222
            CHANNELS 3 Zrotation Xrotation Yrotation
            JOINT LeftAnkle
            {
                OFFSET   0.000087 -41.133200  -0.000135
                CHANNELS 3 Zrotation Xrotation Yrotation
                JOINT LeftToe
                {
                    OFFSET   0.000000  -6.358960  14.674500
                    CHANNELS 3 Zrotation Xrotation Yrotation
                    End Site
                    {
                        OFFSET   0.000000   0.000000   3.913200
                    }
                }
            }
        }
    }
    JOINT RightHip
    {
        OFFSET  -9.783040   0.000000   0.000000
        CHANNELS 3 Zrotation Xrotation Yrotation
        JOINT RightKnee
        {
            OFFSET   0.000047 -41.789100  -0.000896
            CHANNELS 3 Zrotation Xrotation Yrotation
            JOINT RightAnkle
            {
                OFFSET  -0.000117 -41.133300  -0.000248
                CHANNELS 3 Zrotation Xrotation Yrotation
                JOINT RightToe
                {
                    OFFSET   0.000000  -6.358970  14.674500
                    CHANNELS 3 Zrotation Xrotation Yrotation
                    End Site
                    {
                        OFFSET   0.000000   0.000000   3.913200
                    }
                }
            }
        }
    }
}
MOTION
Frames: 6
Frame Time:   0.016667
 -2.012240  89.408000   0.134952  -0.159780  -3.489140   4.152360   0.812276   2.965850  -1.469130   1.703950   5.909550  -2.986250  -1.508280   1.044270   0.033835  -2.482300   2.112440   5.099110  -7.138210   3.090990  10.617700 -78.337400   2.676650   0.741312  -0.265082  -1.511950 -18.278700   8.844700  -0.193555  -1.301770  38.779400  34.741700 -52.289900 -35.821900  -0.006245   0.007370 -13.313000   0.000101   0.003731 -34.624400  -0.783892   1.140930 -28.335400  -0.000882  -0.010082 -19.834800  -0.001445  -0.002552 -34.807200  -3.573940   5.135120 -52.450700   0.000559   0.000461 -34.932200   0.002193   0.000291 -29.635300  -4.987080   8.685660 -45.022600  -0.000909   0.008307 -29.985000  -0.008468   0.008665 -37.406800  -7.189140   9.292920 -56.987600  -0.001789   0.007919 -37.953800  -0.002714   0.001986   6.805250   5.539290   8.616520  69.661900  -4.574000  -3.251020   4.020160  -6.815810  17.841400 -15.731600   0.690453   6.148620 -37.651000  35.963900  71.320300  34.052400   0.006109  -0.004013  12.026200  -0.004111  -0.005910  32.739100   0.057777   0.089539  26.786600  -0.000809   0.000243  18.750600  -0.001444  -0.002294  31.035800   0.054969   0.091288  46.553900   0.003503   0.000844  31.004900   0.007740   0.004830  33.923500   0.059445   0.088431  50.885400   0.003064   0.001460  33.889700   0.010898  -0.001146  42.594700  -1.869970  -2.041520  63.942400   0.004081   0.005171  42.585600   0.004345  -0.000331   3.543690   5.199660  -1.048240   0.952161   1.106800   9.660960  -4.599220  -2.854200  -1.541170  -0.000000   0.000000   0.000000  -1.108840   7.322770  -7.245060   1.712200   0.176782 -14.021300  -0.603838  -3.344250  -0.305946  -0.000000   0.000000   0.000000
 -2.012290  89.408000   0.135106  -0.160157  -3.498660   4.132510   0.812049   2.971110  -1.469270   1.703560   5.920070  -2.986590  -1.508020   1.060480   0.033884  -2.482650   2.145380   5.099290  -7.143030   3.074110  10.609400 -78.349800   2.689770   0.772315  -0.277612  -1.521960 -18.356700   8.836970  -0.166281  -1.301000  38.754500  34.694200 -52.263800 -35.819600  -0.006254   0.007372 -13.309900   0.000098   0.003740 -34.632200  -0.782935   1.136680 -28.341800  -0.000879  -0.010085 -19.839300  -0.001442  -0.002566 -34.819500  -3.574160   5.131860 -52.469100   0.000570   0.000452 -34.944400   0.002196   0.000291 -29.629300  -4.987280   8.685570 -45.013500  -0.000894   0.008289 -29.979000  -0.008469   0.008660 -37.408400  -7.183390   9.285920 -56.987600  -0.001774   0.007916 -37.953800  -0.002700   0.001987   6.825380   5.487630   8.616670  69.716900  -4.530420  -3.272240   3.991300  -6.840740  17.920000 -15.726800   0.698593   6.155640 -37.736600  36.062800  71.437500  33.993800   0.006113  -0.004015  11.996900  -0.004099  -0.005869  32.730800   0.096959   0.150777  26.779700  -0.000799   0.000252  18.745800  -0.001439  -0.002291  31.036500   0.092169   0.153789  46.555100   0.003471   0.000843  31.005700   0.007756   0.004789  33.929300   0.099888   0.148888  50.894200   0.003076   0.001428  33.895500   0.010918  -0.001144  42.596400  -1.870470  -2.038310  63.944700   0.004055   0.005139  42.587200   0.004319  -0.000337   3.543830   5.212920  -1.048250   0.950429   1.105130   9.673610  -4.599060  -2.856820  -1.534170  -0.000000   0.000000   0.000000  -1.108200   7.325200  -7.242520   1.711430   0.182013 -14.026700  -0.602133  -3.345570  -0.283421   0.000000   0.000000   0.000000
 -2.012360  89.408000   0.135260  -0.160656  -3.520440   4.095540   0.812057   2.985500  -1.469430   1.704080   5.948830  -2.987210  -1.507780   1.084740   0.033933  -2.484480   2.194750   5.099950  -7.160750   3.036010  10.595000 -78.374000   2.702870   0.841306  -0.308641  -1.552040 -18.547100   8.818290  -0.139008  -1.295560  38.705500  34.591900 -52.203500 -35.807100  -0.006272   0.007386 -13.297100   0.000094   0.003756 -34.647700  -0.779160   1.127290 -28.354400  -0.000872  -0.010094 -19.848100  -0.001434  -0.002599 -34.850300  -3.574400   5.123690 -52.515000   0.000601   0.000430 -34.975000   0.002207   0.000291 -29.619600  -4.987620   8.685480 -44.998900  -0.000861   0.008249 -29.969300  -0.008470   0.008648 -37.411400  -7.173480   9.273150 -56.987600  -0.001736   0.007911 -37.953800  -0.002666   0.001989   6.865940   5.388420   8.621570  69.793100  -4.485520  -3.324880   3.976430  -6.861140  18.115200 -15.727800   0.755565   6.204750 -37.868500  36.218400  71.634200  33.902000   0.006129  -0.004025  11.951000  -0.004073  -0.005780  32.722100   0.171990   0.267934  26.772900  -0.000777   0.000275  18.741000  -0.001423  -0.002285  31.042000   0.163690   0.273167  46.563700   0.003407   0.000842  31.011400   0.007787   0.004706  33.955300   0.177434   0.264454  50.933500   0.003109   0.001375  33.921700   0.010963  -0.001137  42.604000  -1.872910  -2.035110  63.956000   0.004000   0.005067  42.594700   0.004262  -0.000351   3.544240   5.241460  -1.048250   0.946982   1.103430   9.695330  -4.598740  -2.863250  -1.521880   0.000000   0.000000  -0.000000  -1.106890   7.332800  -7.237660   1.709860   0.198329 -14.032100  -0.598136  -3.352690  -0.245600   0.000000   0.000000  -0.000000
 -2.012420  89.408800   0.135253  -0.160827  -3.548560   4.059040   0.812710   3.007760  -1.469460   1.706370   5.993320  -2.987860  -1.509220   1.098340   0.033917  -2.487490   2.222640   5.103830  -7.196220   2.980840  10.581500 -78.396900   2.695810   0.935880  -0.350140  -1.607410 -18.805300   8.788610  -0.172897  -1.258970  38.635300  34.441800 -52.112300 -35.784900  -0.006290   0.007432 -13.275200   0.000103   0.003772 -34.663700  -0.771547   1.115130 -28.367200  -0.000862  -0.010112 -19.857100  -0.001423  -0.002645 -34.895100  -3.574420   5.111810 -52.581800   0.000648   0.000398 -35.019500   0.002227   0.000291 -29.612200  -4.987950   8.685510 -44.987900  -0.000814   0.008194 -29.962000  -0.008470   0.008631 -37.414500  -7.166180   9.262600 -56.990900  -0.001681   0.007905 -37.956000  -0.002618   0.001991   6.914170   5.280020   8.646920  69.827000  -4.483750  -3.411840   4.000320  -6.818470  18.389900 -15.803400   0.937743   6.396390 -37.951200  36.333900  71.801000  33.863600   0.006164  -0.004060  11.931800  -0.004037  -0.005649  32.722600   0.252040   0.392919  26.773900  -0.000750   0.000312  18.741700  -0.001397  -0.002277  31.090300   0.240365   0.400250  46.637000   0.003323   0.001786  31.060200   0.007827   0.004597  34.001200   0.260101   0.387743  51.003400   0.003160   0.001321  33.968300   0.011024  -0.001125  42.611800  -1.875440  -2.036410  63.967700   0.003924   0.004967  42.602500   0.004178  -0.000373   3.544540   5.276730  -1.043750   0.943117   1.103410   9.714960  -4.598370  -2.872500  -1.511180  -0.000000   0.000000  -0.000000  -1.105450   7.341700  -7.234960   1.707400   0.237444 -14.027200  -0.591119  -3.374610  -0.214733   0.000000   0.000000   0.000000
 -2.012450  89.410400   0.135204  -0.160802  -3.587160   4.015480   0.814079   3.038900  -1.469500   1.709650   6.055580  -2.988440  -1.513610   1.108710   0.033878  -2.492560   2.243870   5.117000  -7.241430   2.921190  10.570000 -78.431300   2.659620   1.045190  -0.414384  -1.671930 -19.178000   8.756000  -0.262731  -1.177020  38.586500  34.303300 -52.017800 -35.740200  -0.006314   0.007495 -13.235600   0.000115   0.003792 -34.686400  -0.761348   1.099810 -28.385600  -0.000848  -0.010134 -19.869900  -0.001410  -0.002701 -34.955300  -3.574160   5.095860 -52.671500   0.000708   0.000356 -35.079200   0.002251   0.000290 -29.605700  -4.988150   8.685670 -44.978200  -0.000757   0.008130 -29.955500  -0.008471   0.008610 -37.422300  -7.155910   9.246690 -57.002400  -0.001615   0.007898 -37.963600  -0.002562   0.001994   6.966830   5.158640   8.676030  69.836900  -4.483120  -3.501940   4.014010  -6.677080  18.769000 -15.940200   1.093720   6.639270 -38.017400  36.419600  71.950600  33.787700   0.006203  -0.004088  11.893800  -0.003992  -0.005530  32.730600   0.344572   0.536893  26.781200  -0.000713   0.000358  18.746800  -0.001363  -0.002268  31.190200   0.329529   0.546306  46.788300   0.003239   0.003759  31.161000   0.007867   0.004499  34.084500   0.356257   0.529302  51.129800   0.003228   0.001288  34.052500   0.011086  -0.001108  42.642300  -1.885430  -2.045490  64.014000   0.003843   0.004859  42.633300   0.004088  -0.000401   3.544650   5.321930  -1.031210   0.938925   1.103700   9.733520  -4.597510  -2.884590  -1.498840  -0.000000   0.000000   0.000000  -1.103380   7.364160  -7.226500   1.705750   0.265474 -14.022300  -0.585465  -3.390720  -0.183581   0.000000   0.000000   0.000000
 -2.012380  89.412300   0.134205  -0.161975  -3.638020   3.963710   0.817206   3.079510  -1.468680   1.716760   6.136690  -2.987600  -1.521210   1.115820   0.033822  -2.503050   2.258030   5.143330  -7.290060   2.863000  10.565700 -78.489200   2.583720   1.152770  -0.516725  -1.745210 -19.710700   8.727730  -0.412372  -1.035700  38.628400  34.257900 -51.934100 -35.665800  -0.006349   0.007558 -13.175200   0.000122   0.003819 -34.731900  -0.755471   1.090800 -28.422900  -0.000830  -0.010154 -19.896100  -0.001398  -0.002763 -35.036600  -3.570390   5.074360 -52.793500   0.000780   0.000305 -35.160200   0.002278   0.000291 -29.602800  -4.987910   8.693450 -44.974000  -0.000695   0.008062 -29.952700  -0.008472   0.008586 -37.440400  -7.147420   9.233300 -57.031800  -0.001546   0.007889 -37.983200  -0.002502   0.001997   7.023110   5.033020   8.687520  69.822000  -4.488890  -3.568950   4.029730  -6.391760  19.274800 -16.106000   1.108680   6.774270 -38.070400  36.366200  72.050100  33.630400   0.006233  -0.004047  11.815200  -0.003940  -0.005488  32.761400   0.428012   0.665626  26.807300  -0.000662   0.000411  18.765000  -0.001323  -0.002257  31.328000   0.410581   0.676365  46.996600   0.003177   0.006289  31.299700   0.007897   0.004462  34.231800   0.443968   0.654925  51.350500   0.003314   0.001309  34.199900   0.011129  -0.001085  42.731100  -1.914100  -2.069970  64.148500   0.003765   0.004756  42.722900   0.004005  -0.000433   3.547600   5.377100  -1.011510   0.934356   1.108730   9.747880  -4.595060  -2.898660  -1.483910   0.000000   0.000000   0.000000  -1.100670   7.414920  -7.203760   1.705500   0.261435 -14.022300  -0.584269  -3.390090  -0.154272   0.000000   0.000000  -0.000000
